<?xml version="1.0" encoding="UTF-8" standalone="no"?>
<!DOCTYPE svg PUBLIC "-//W3C//DTD SVG 1.1//EN"
 "http://www.w3.org/Graphics/SVG/1.1/DTD/svg11.dtd">
<!-- Generated by graphviz version 14.1.4 (20260321.0153)
 -->
<!-- Pages: 1 -->
<svg width="206pt" height="600pt"
 viewBox="0.00 0.00 206.00 600.00" xmlns="http://www.w3.org/2000/svg" xmlns:xlink="http://www.w3.org/1999/xlink">
<g id="graph0" class="graph" transform="scale(1 1) rotate(0) translate(4 595.98)">
<polygon fill="white" stroke="none" points="-4,4 -4,-595.98 201.5,-595.98 201.5,4 -4,4"/>
<!-- 2904641059216 -->
<g id="node1" class="node">
<title>2904641059216</title>
<ellipse fill="lightblue" stroke="lightblue" cx="120" cy="-562.99" rx="37.3" ry="28.99"/>
<text xml:space="preserve" text-anchor="middle" x="120" y="-566.19" font-family="Times New Roman,serif" font-size="14.00">ROOT</text>
<text xml:space="preserve" text-anchor="middle" x="120" y="-549.69" font-family="Times New Roman,serif" font-size="14.00">11</text>
</g>
<!-- 2904640705616 -->
<g id="node2" class="node">
<title>2904640705616</title>
<ellipse fill="none" stroke="black" cx="93" cy="-480" rx="27" ry="18"/>
<text xml:space="preserve" text-anchor="middle" x="93" y="-474.95" font-family="Times New Roman,serif" font-size="14.00">4|7</text>
</g>
<!-- 2904641059216&#45;&gt;2904640705616 -->
<g id="edge1" class="edge">
<title>2904641059216&#45;&gt;2904640705616</title>
<path fill="none" stroke="black" d="M110.86,-534.57C108.08,-526.24 105.03,-517.09 102.25,-508.74"/>
<polygon fill="black" stroke="black" points="105.63,-507.82 99.15,-499.44 98.99,-510.03 105.63,-507.82"/>
</g>
<!-- 2904641059408 -->
<g id="node6" class="node">
<title>2904641059408</title>
<ellipse fill="none" stroke="black" cx="158" cy="-251.5" rx="31.39" ry="18"/>
<text xml:space="preserve" text-anchor="middle" x="158" y="-246.45" font-family="Times New Roman,serif" font-size="14.00">14|16</text>
</g>
<!-- 2904641059216&#45;&gt;2904641059408 -->
<g id="edge8" class="edge">
<title>2904641059216&#45;&gt;2904641059408</title>
<path fill="none" stroke="black" d="M124.08,-533.98C125.67,-522.79 127.47,-509.79 129,-498 139.14,-419.63 149.69,-327 154.82,-281.16"/>
<polygon fill="black" stroke="black" points="158.29,-281.61 155.92,-271.28 151.34,-280.83 158.29,-281.61"/>
</g>
<!-- 2904640711312 -->
<g id="node3" class="node">
<title>2904640711312</title>
<polygon fill="lightgreen" stroke="lightgreen" points="54,-426 0,-426 0,-385 54,-385 54,-426"/>
<text xml:space="preserve" text-anchor="middle" x="27" y="-408.7" font-family="Times New Roman,serif" font-size="14.00">Leaf</text>
<text xml:space="preserve" text-anchor="middle" x="27" y="-392.2" font-family="Times New Roman,serif" font-size="14.00">0|1|2|3</text>
</g>
<!-- 2904640705616&#45;&gt;2904640711312 -->
<g id="edge2" class="edge">
<title>2904640705616&#45;&gt;2904640711312</title>
<path fill="none" stroke="black" d="M79.32,-463.98C71.67,-455.57 61.88,-444.82 52.84,-434.89"/>
<polygon fill="black" stroke="black" points="55.51,-432.61 46.19,-427.58 50.33,-437.33 55.51,-432.61"/>
</g>
<!-- 2904641058896 -->
<g id="node4" class="node">
<title>2904641058896</title>
<polygon fill="lightgreen" stroke="lightgreen" points="92,-349 38,-349 38,-308 92,-308 92,-349"/>
<text xml:space="preserve" text-anchor="middle" x="65" y="-331.7" font-family="Times New Roman,serif" font-size="14.00">Leaf</text>
<text xml:space="preserve" text-anchor="middle" x="65" y="-315.2" font-family="Times New Roman,serif" font-size="14.00">4|5|6</text>
</g>
<!-- 2904640705616&#45;&gt;2904641058896 -->
<g id="edge4" class="edge">
<title>2904640705616&#45;&gt;2904641058896</title>
<path fill="none" stroke="black" d="M89.79,-461.85C85.15,-437.1 76.51,-390.95 70.76,-360.23"/>
<polygon fill="black" stroke="black" points="74.27,-359.96 68.98,-350.77 67.38,-361.25 74.27,-359.96"/>
</g>
<!-- 2904641055504 -->
<g id="node5" class="node">
<title>2904641055504</title>
<polygon fill="lightgreen" stroke="lightgreen" points="108.38,-272 49.62,-272 49.62,-231 108.38,-231 108.38,-272"/>
<text xml:space="preserve" text-anchor="middle" x="79" y="-254.7" font-family="Times New Roman,serif" font-size="14.00">Leaf</text>
<text xml:space="preserve" text-anchor="middle" x="79" y="-238.2" font-family="Times New Roman,serif" font-size="14.00">7|8|9|10</text>
</g>
<!-- 2904640705616&#45;&gt;2904641055504 -->
<g id="edge6" class="edge">
<title>2904640705616&#45;&gt;2904641055504</title>
<path fill="none" stroke="black" d="M96.43,-461.82C102.05,-430.79 111.59,-363.47 101,-308 99.38,-299.53 96.49,-290.71 93.33,-282.65"/>
<polygon fill="black" stroke="black" points="96.64,-281.49 89.53,-273.64 90.19,-284.22 96.64,-281.49"/>
</g>
<!-- 2904640711312&#45;&gt;2904641058896 -->
<g id="edge3" class="edge">
<title>2904640711312&#45;&gt;2904641058896</title>
<path fill="none" stroke="black" stroke-dasharray="5,2" d="M36.98,-384.79C40.92,-377.02 45.54,-367.91 49.87,-359.36"/>
<polygon fill="black" stroke="black" points="52.87,-361.19 54.27,-350.68 46.62,-358.02 52.87,-361.19"/>
</g>
<!-- 2904641058896&#45;&gt;2904641055504 -->
<g id="edge5" class="edge">
<title>2904641058896&#45;&gt;2904641055504</title>
<path fill="none" stroke="black" stroke-dasharray="5,2" d="M68.68,-307.79C70.07,-300.36 71.68,-291.71 73.21,-283.49"/>
<polygon fill="black" stroke="black" points="76.63,-284.29 75.02,-273.82 69.74,-283.01 76.63,-284.29"/>
</g>
<!-- 2904641057744 -->
<g id="node7" class="node">
<title>2904641057744</title>
<polygon fill="lightgreen" stroke="lightgreen" points="120.25,-195 57.75,-195 57.75,-154 120.25,-154 120.25,-195"/>
<text xml:space="preserve" text-anchor="middle" x="89" y="-177.7" font-family="Times New Roman,serif" font-size="14.00">Leaf</text>
<text xml:space="preserve" text-anchor="middle" x="89" y="-161.2" font-family="Times New Roman,serif" font-size="14.00">11|12|13</text>
</g>
<!-- 2904641055504&#45;&gt;2904641057744 -->
<g id="edge7" class="edge">
<title>2904641055504&#45;&gt;2904641057744</title>
<path fill="none" stroke="black" stroke-dasharray="5,2" d="M81.63,-230.79C82.62,-223.36 83.77,-214.71 84.87,-206.49"/>
<polygon fill="black" stroke="black" points="88.3,-207.21 86.16,-196.83 81.36,-206.28 88.3,-207.21"/>
</g>
<!-- 2904641059408&#45;&gt;2904641057744 -->
<g id="edge9" class="edge">
<title>2904641059408&#45;&gt;2904641057744</title>
<path fill="none" stroke="black" d="M144.04,-235.32C135.71,-226.27 124.87,-214.49 115.02,-203.78"/>
<polygon fill="black" stroke="black" points="117.77,-201.6 108.42,-196.61 112.61,-206.34 117.77,-201.6"/>
</g>
<!-- 2904641058064 -->
<g id="node8" class="node">
<title>2904641058064</title>
<polygon fill="lightgreen" stroke="lightgreen" points="158,-118 104,-118 104,-77 158,-77 158,-118"/>
<text xml:space="preserve" text-anchor="middle" x="131" y="-100.7" font-family="Times New Roman,serif" font-size="14.00">Leaf</text>
<text xml:space="preserve" text-anchor="middle" x="131" y="-84.2" font-family="Times New Roman,serif" font-size="14.00">14|15</text>
</g>
<!-- 2904641059408&#45;&gt;2904641058064 -->
<g id="edge11" class="edge">
<title>2904641059408&#45;&gt;2904641058064</title>
<path fill="none" stroke="black" d="M154.96,-233.36C150.48,-208.16 142.05,-160.72 136.48,-129.36"/>
<polygon fill="black" stroke="black" points="139.96,-128.94 134.77,-119.7 133.07,-130.16 139.96,-128.94"/>
</g>
<!-- 2904641058448 -->
<g id="node9" class="node">
<title>2904641058448</title>
<polygon fill="lightgreen" stroke="lightgreen" points="197.5,-41 118.5,-41 118.5,0 197.5,0 197.5,-41"/>
<text xml:space="preserve" text-anchor="middle" x="158" y="-23.7" font-family="Times New Roman,serif" font-size="14.00">Leaf</text>
<text xml:space="preserve" text-anchor="middle" x="158" y="-7.2" font-family="Times New Roman,serif" font-size="14.00">16|17|18|19</text>
</g>
<!-- 2904641059408&#45;&gt;2904641058448 -->
<g id="edge13" class="edge">
<title>2904641059408&#45;&gt;2904641058448</title>
<path fill="none" stroke="black" d="M160.4,-233.24C164.42,-202.03 171.6,-134.12 167,-77 166.36,-69.02 165.2,-60.47 163.93,-52.52"/>
<polygon fill="black" stroke="black" points="167.43,-52.2 162.29,-42.93 160.53,-53.38 167.43,-52.2"/>
</g>
<!-- 2904641057744&#45;&gt;2904641058064 -->
<g id="edge10" class="edge">
<title>2904641057744&#45;&gt;2904641058064</title>
<path fill="none" stroke="black" stroke-dasharray="5,2" d="M100.04,-153.79C104.39,-146.02 109.49,-136.91 114.28,-128.36"/>
<polygon fill="black" stroke="black" points="117.32,-130.09 119.15,-119.65 111.21,-126.67 117.32,-130.09"/>
</g>
<!-- 2904641058064&#45;&gt;2904641058448 -->
<g id="edge12" class="edge">
<title>2904641058064&#45;&gt;2904641058448</title>
<path fill="none" stroke="black" stroke-dasharray="5,2" d="M138.09,-76.79C140.83,-69.19 144.03,-60.31 147.05,-51.93"/>
<polygon fill="black" stroke="black" points="150.25,-53.35 150.35,-42.76 143.67,-50.98 150.25,-53.35"/>
</g>
</g>
</svg>
